<svg width="100" height="100" viewBox="0 0 100 100" xmlns="http://www.w3.org/2000/svg">
  <defs>
    <linearGradient id="daiyu-bg" x1="0%" y1="0%" x2="100%" y2="100%">
      <stop offset="0%" style="stop-color:#EC4899;stop-opacity:1" />
      <stop offset="100%" style="stop-color:#BE185D;stop-opacity:1" />
    </linearGradient>
  </defs>
  
  <!-- 背景圆 -->
  <circle cx="50" cy="50" r="50" fill="url(#daiyu-bg)"/>
  
  <!-- 头发 -->
  <path d="M25 35 Q50 20 75 35 Q75 45 70 50 Q50 30 30 50 Q25 45 25 35" fill="#1F2937"/>
  
  <!-- 脸部 -->
  <ellipse cx="50" cy="58" rx="16" ry="20" fill="#FEF3C7"/>
  
  <!-- 眼睛 -->
  <ellipse cx="45" cy="52" rx="2.5" ry="3" fill="#1F2937"/>
  <ellipse cx="55" cy="52" rx="2.5" ry="3" fill="#1F2937"/>
  
  <!-- 眉毛 -->
  <path d="M42 48 Q45 46 48 48" stroke="#1F2937" stroke-width="1" fill="none"/>
  <path d="M52 48 Q55 46 58 48" stroke="#1F2937" stroke-width="1" fill="none"/>
  
  <!-- 嘴唇 -->
  <ellipse cx="50" cy="65" rx="3" ry="1.5" fill="#DC2626"/>
  
  <!-- 发饰 -->
  <circle cx="40" cy="35" r="3" fill="#F59E0B"/>
  <circle cx="60" cy="35" r="3" fill="#F59E0B"/>
  
  <!-- 花朵装饰 -->
  <g transform="translate(65,40)">
    <circle cx="0" cy="0" r="4" fill="#F472B6"/>
    <circle cx="-2" cy="-2" r="2" fill="#FBBF24"/>
    <circle cx="2" cy="-2" r="2" fill="#FBBF24"/>
    <circle cx="0" cy="2" r="2" fill="#FBBF24"/>
  </g>
  
  <!-- 诗意符号 -->
  <text x="50" y="88" text-anchor="middle" fill="white" font-size="10" font-family="serif">诗</text>
</svg>