<svg width="100" height="100" viewBox="0 0 100 100" xmlns="http://www.w3.org/2000/svg">
  <defs>
    <linearGradient id="mozi-bg" x1="0%" y1="0%" x2="100%" y2="100%">
      <stop offset="0%" style="stop-color:#374151;stop-opacity:1" />
      <stop offset="100%" style="stop-color:#1F2937;stop-opacity:1" />
    </linearGradient>
  </defs>
  
  <!-- 背景圆 -->
  <circle cx="50" cy="50" r="50" fill="url(#mozi-bg)"/>
  
  <!-- 头发 -->
  <path d="M25 35 Q50 25 75 35 Q70 30 50 30 Q30 30 25 35" fill="#111827"/>
  
  <!-- 脸部 -->
  <ellipse cx="50" cy="58" rx="18" ry="22" fill="#FBBF24"/>
  
  <!-- 眼睛 -->
  <circle cx="44" cy="52" r="2" fill="#1F2937"/>
  <circle cx="56" cy="52" r="2" fill="#1F2937"/>
  
  <!-- 眉毛 -->
  <path d="M40 48 Q44 46 48 48" stroke="#1F2937" stroke-width="1.5" fill="none"/>
  <path d="M52 48 Q56 46 60 48" stroke="#1F2937" stroke-width="1.5" fill="none"/>
  
  <!-- 胡须 -->
  <path d="M45 68 Q50 72 55 68" stroke="#111827" stroke-width="2" fill="none"/>
  
  <!-- 简朴的衣领 -->
  <rect x="40" y="75" width="20" height="8" fill="#6B7280" rx="2"/>
  
  <!-- 兼爱符号 -->
  <circle cx="25" cy="25" r="8" fill="white" opacity="0.9"/>
  <text x="25" y="30" text-anchor="middle" fill="#1F2937" font-size="8" font-family="serif">兼</text>
  
  <!-- 哲学符号 -->
  <text x="50" y="88" text-anchor="middle" fill="white" font-size="10" font-family="serif">墨</text>
</svg>