<svg width="100" height="100" viewBox="0 0 100 100" xmlns="http://www.w3.org/2000/svg">
  <defs>
    <linearGradient id="wukong-bg" x1="0%" y1="0%" x2="100%" y2="100%">
      <stop offset="0%" style="stop-color:#F59E0B;stop-opacity:1" />
      <stop offset="100%" style="stop-color:#DC2626;stop-opacity:1" />
    </linearGradient>
  </defs>
  
  <!-- 背景圆 -->
  <circle cx="50" cy="50" r="50" fill="url(#wukong-bg)"/>
  
  <!-- 猴脸 -->
  <ellipse cx="50" cy="55" rx="22" ry="25" fill="#D97706"/>
  
  <!-- 眼睛 -->
  <circle cx="43" cy="50" r="3" fill="white"/>
  <circle cx="57" cy="50" r="3" fill="white"/>
  <circle cx="43" cy="50" r="2" fill="#1F2937"/>
  <circle cx="57" cy="50" r="2" fill="#1F2937"/>
  
  <!-- 鼻子 -->
  <ellipse cx="50" cy="58" rx="2" ry="3" fill="#B45309"/>
  
  <!-- 嘴巴 -->
  <path d="M45 65 Q50 70 55 65" stroke="#1F2937" stroke-width="2" fill="none"/>
  
  <!-- 金箍 -->
  <rect x="30" y="35" width="40" height="6" fill="#FBBF24" rx="3"/>
  <rect x="32" y="37" width="36" height="2" fill="#F59E0B"/>
  
  <!-- 耳朵 -->
  <ellipse cx="30" cy="50" rx="4" ry="8" fill="#D97706"/>
  <ellipse cx="70" cy="50" rx="4" ry="8" fill="#D97706"/>
  
  <!-- 火眼金睛效果 -->
  <circle cx="43" cy="50" r="4" fill="none" stroke="#DC2626" stroke-width="1" opacity="0.7"/>
  <circle cx="57" cy="50" r="4" fill="none" stroke="#DC2626" stroke-width="1" opacity="0.7"/>
  
  <!-- 符号 -->
  <text x="50" y="88" text-anchor="middle" fill="white" font-size="10" font-family="serif">齐天</text>
</svg>