<svg width="100" height="100" viewBox="0 0 100 100" xmlns="http://www.w3.org/2000/svg">
  <defs>
    <linearGradient id="zhuang-bg" x1="0%" y1="0%" x2="100%" y2="100%">
      <stop offset="0%" style="stop-color:#10B981;stop-opacity:1" />
      <stop offset="100%" style="stop-color:#059669;stop-opacity:1" />
    </linearGradient>
  </defs>
  
  <!-- 背景圆 -->
  <circle cx="50" cy="50" r="50" fill="url(#zhuang-bg)"/>
  
  <!-- 头发（飘逸） -->
  <path d="M25 35 Q50 20 75 35 Q80 40 75 45 Q50 25 25 45 Q20 40 25 35" fill="#2D1B69"/>
  
  <!-- 脸部 -->
  <ellipse cx="50" cy="58" rx="17" ry="21" fill="#FBBF24"/>
  
  <!-- 眼睛（智慧的眼神） -->
  <circle cx="44" cy="52" r="2.5" fill="#1F2937"/>
  <circle cx="56" cy="52" r="2.5" fill="#1F2937"/>
  <circle cx="44" cy="51" r="0.5" fill="white"/>
  <circle cx="56" cy="51" r="0.5" fill="white"/>
  
  <!-- 微笑 -->
  <path d="M45 65 Q50 68 55 65" stroke="#1F2937" stroke-width="1.5" fill="none"/>
  
  <!-- 胡须 -->
  <path d="M42 70 Q50 74 58 70" stroke="#2D1B69" stroke-width="1.5" fill="none"/>
  
  <!-- 蝴蝶（庄周梦蝶） -->
  <g transform="translate(75,30)">
    <ellipse cx="-2" cy="0" rx="3" ry="2" fill="#F472B6"/>
    <ellipse cx="2" cy="0" rx="3" ry="2" fill="#F472B6"/>
    <circle cx="0" cy="0" r="1" fill="#1F2937"/>
  </g>
  
  <!-- 道符号 -->
  <text x="50" y="88" text-anchor="middle" fill="white" font-size="10" font-family="serif">道</text>
</svg>